<?xml version="1.0" encoding="UTF-8" standalone="no"?>
<svg width="47px" height="45px" viewBox="0 0 47 45" version="1.1" xmlns="http://www.w3.org/2000/svg" xmlns:xlink="http://www.w3.org/1999/xlink">
    <!-- Generator: sketchtool 40 (33762) - http://www.bohemiancoding.com/sketch -->
    <title>299C2AC5-1740-4414-909E-3A77228BD096</title>
    <desc>Created with sketchtool.</desc>
    <defs></defs>
    <g id="Page-1" stroke="none" stroke-width="1" fill="none" fill-rule="evenodd">
        <g id="HOMEPAGE-" transform="translate(-878.000000, -249.000000)" fill="#72A542">
            <g id="Group-4" transform="translate(878.000000, 249.000000)">
                <path d="M44.188272,21.7280625 C45.312512,23.542125 46.568352,25.1518125 46.773272,27.32025 C47.060912,30.3718125 46.980072,33.3943125 46.160392,36.3549375 C45.874632,37.3880625 45.618952,38.7643125 44.318932,38.8468125 C42.813992,38.9424375 42.548912,37.447125 42.244352,36.378375 C41.102252,32.3780625 41.081572,28.3355625 42.188892,24.3193125 C42.458672,23.3415 42.784852,22.314 44.188272,21.7280625" id="Fill-1"></path>
                <path d="M37.130282,28.7766563 C38.179322,30.0347813 37.990382,31.1063438 37.758202,32.0850938 C36.784362,36.1960313 34.853602,39.8213438 31.898242,42.8635313 C31.138722,43.6454063 30.220342,44.6841563 29.061322,44.0982188 C27.851542,43.4879063 28.293342,42.1069688 28.510482,41.0832188 C29.237102,37.6557188 30.738282,34.5169688 32.965142,31.8469688 C34.018882,30.5822813 35.676102,29.8182188 37.130282,28.7766563" id="Fill-3"></path>
                <path d="M14.732432,2.65875 C15.122532,5.17875 15.684652,7.528125 14.623392,9.871875 C13.857292,11.565 13.118452,13.2740625 12.253652,14.9165625 C11.809972,15.7584375 11.172652,16.520625 10.522172,17.2246875 C9.927152,17.86875 9.209932,18.6459375 8.226692,18.2015625 C7.277292,17.7721875 7.221832,16.7128125 7.293272,15.8446875 C7.672092,11.259375 9.228732,7.123125 12.297832,3.6290625 C12.988732,2.844375 13.042312,2.8903125 14.732432,2.65875" id="Fill-6"></path>
                <path d="M30.584686,10.9905 C32.757026,10.7195625 34.732906,9.8458125 36.947546,10.49175 C39.618086,11.269875 42.254786,12.113625 44.583166,13.6633125 C45.373706,14.18925 46.105026,14.87175 46.689706,15.6189375 C47.273446,16.3633125 47.008366,17.089875 46.107846,17.419875 C45.540086,17.6289375 44.888666,17.7105 44.279546,17.6955 C39.861546,17.5895625 35.863726,16.1776875 32.245666,13.684875 C31.454186,13.13925 30.709706,12.4876875 30.584686,10.9905" id="Fill-8"></path>
                <path d="M18.127242,14.8090312 C19.339842,15.4990312 19.500582,16.4796562 19.546642,17.4255937 C19.763782,21.8618437 18.759862,26.0252812 16.503862,29.8577812 C15.994382,30.7230937 15.358002,31.8396562 14.161382,31.4965312 C12.992962,31.1609062 13.022102,29.9027812 12.954422,28.8771562 C12.732582,25.5227812 13.448862,22.3146562 14.593782,19.1927812 C15.280922,17.3177812 16.937202,16.2527812 18.127242,14.8090312" id="Fill-11"></path>
                <path d="M26.487226,36.9793125 C24.999206,38.484 23.756526,39.9915 21.887806,40.6393125 C18.941846,41.66025 15.900006,42.280875 12.754766,42.0961875 C12.010286,42.052125 11.236666,41.8965 10.548586,41.61525 C9.493906,41.184 9.320006,40.330875 10.114306,39.483375 C10.622846,38.9424375 11.255466,38.4680625 11.917226,38.1268125 C15.349166,36.3530625 19.025506,35.5336875 22.882326,35.5843125 C24.112786,35.5993125 25.349826,35.7568125 26.487226,36.9793125" id="Fill-13"></path>
                <path d="M0.95833,19.2188437 C2.95301,20.4994687 4.72679,21.7969687 5.60005,24.0844687 C6.58611,26.6691562 7.57499,29.2416562 7.72163,32.0316562 C7.78555,33.2335312 8.10233,34.8113437 6.66131,35.2688437 C5.38949,35.6719687 4.60177,34.3510312 3.95787,33.4069687 C1.62009,29.9813437 0.19223,26.2135312 0.02585,22.0388437 C-0.01081,21.1088437 -0.15087,20.0860312 0.95833,19.2188437" id="Fill-15"></path>
                <path d="M24.462466,0.9375 C25.666606,2.675625 26.965686,4.333125 27.155566,6.5859375 C27.405606,9.556875 27.501486,12.5184375 26.678046,15.41625 C26.370666,16.498125 26.193006,18.00375 24.707806,17.9625 C23.426586,17.926875 23.101346,16.5515625 22.792086,15.5240625 C21.572906,11.476875 21.405586,7.3828125 22.545806,3.2840625 C22.817466,2.311875 23.088186,1.26 24.462466,0.9375" id="Fill-17"></path>
                <path d="M37.475168,22.1074687 C37.662228,23.6112187 36.933728,24.2074687 36.219328,24.7202812 C32.421728,27.4502812 28.188908,28.9221562 23.484208,28.9577812 C23.209728,28.9596562 22.931488,28.9296562 22.660768,28.8790312 C21.109768,28.5874687 20.752568,27.6077812 21.811008,26.4021562 C22.258448,25.8912187 22.816808,25.4534062 23.387388,25.0765312 C26.131248,23.2671562 29.172148,22.0718437 32.386948,21.5974687 C34.010328,21.3584062 35.751208,21.9096562 37.475168,22.1074687" id="Fill-20"></path>
            </g>
        </g>
    </g>
</svg>