<?xml version="1.0" encoding="UTF-8" standalone="no"?>
<svg width="22px" height="51px" viewBox="0 0 22 51" version="1.1" xmlns="http://www.w3.org/2000/svg" xmlns:xlink="http://www.w3.org/1999/xlink">
    <!-- Generator: sketchtool 40 (33762) - http://www.bohemiancoding.com/sketch -->
    <title>A239811C-9329-4CD4-BD7E-621A4FF24A9B</title>
    <desc>Created with sketchtool.</desc>
    <defs>
        <polygon id="path-1" points="0.0578132699 3.02743842 5.79449389 3.02743842 5.79449389 0.357338649 0.0578132699 0.357338649"></polygon>
        <polygon id="path-3" points="3.08252815 7.1704146e-15 0.032071138 7.1704146e-15 0.032071138 2.57897388 3.08252815 2.57897388 3.08252815 0"></polygon>
    </defs>
    <g id="Page-1" stroke="none" stroke-width="1" fill="none" fill-rule="evenodd">
        <g id="HOMEPAGE-" transform="translate(-889.000000, -364.000000)">
            <g id="Group-2" transform="translate(888.879310, 363.844828)">
                <g id="Group-3" transform="translate(9.001427, 47.593908)">
                    <mask id="mask-2" fill="white">
                        <use xlink:href="#path-1"></use>
                    </mask>
                    <g id="Clip-2"></g>
                    <path d="M5.5316839,0.445134363 C4.6880839,0.691366021 3.81138188,0.816500143 2.92565203,0.816500143 C1.92456666,0.816500143 0.961598763,0.654027614 0.0578132699,0.360366087 C0.174171891,1.84986579 1.41499615,3.02753934 2.92565203,3.02753934 C4.43731101,3.02753934 5.67813527,1.84885665 5.79449389,0.357338649 L5.5316839,0.445134363 Z" id="Fill-1" fill="#FFFFFF" mask="url(#mask-2)"></path>
                </g>
                <g id="Group-6" transform="translate(10.369679, 0.164039)">
                    <mask id="mask-4" fill="white">
                        <use xlink:href="#path-3"></use>
                    </mask>
                    <g id="Clip-5"></g>
                    <path d="M0.285881094,2.57897388 C0.448381926,2.51842511 0.6179044,2.47200439 0.796454697,2.45383976 C1.31204376,2.40338245 1.83966992,2.40640989 2.36328371,2.46191293 C2.52578454,2.48007756 2.68026064,2.52347084 2.82972128,2.57796473 C2.84476766,2.56181839 2.86182021,2.54769035 2.8758635,2.52952572 C3.03936742,2.32265076 3.11058692,2.05320874 3.07246944,1.79183989 L2.93303971,0.840215077 C2.86984495,0.409309675 2.52879382,0.0762914483 2.103483,0.0298707258 C1.91490178,0.00968780296 1.72632057,-0.000403658456 1.53874245,-0.000403658456 C1.37122616,-0.000403658456 1.20471296,0.00867865681 1.03920285,0.0238158489 C0.597842568,0.067209133 0.245757432,0.402245652 0.182562663,0.837187639 L0.0421298454,1.79183989 C0.00401236623,2.05320874 0.0752318668,2.32265076 0.238735791,2.52952572 C0.252779073,2.54869949 0.269831629,2.56181839 0.285881094,2.57897388" id="Fill-4" fill="#FFFFFF" mask="url(#mask-4)"></path>
                </g>
                <path d="M16.5515316,3.75155394 L16.4121019,2.79992913 C16.3489071,2.36902373 16.007856,2.0360055 15.5825452,1.98958478 C15.394967,1.96940186 15.2053827,1.95931039 15.0178046,1.95931039 C14.8502883,1.95931039 14.6837751,1.96738356 14.518265,1.9835299 C14.3336962,2.00169453 14.1711953,2.08040793 14.0327687,2.18636828 C14.0147131,2.49012126 13.9063792,2.78378279 13.7238165,3.0290053 C14.1370902,3.3438589 14.4289899,3.81210271 14.5092372,4.35805077 L14.5814598,4.84950494 C14.9586222,4.87069701 15.3387939,4.8727153 15.7129471,4.83941348 C15.9667292,4.81822141 16.194431,4.69409644 16.3539226,4.49024892 C16.5184296,4.28236481 16.5896491,4.01292279 16.5515316,3.75155394" id="Fill-7" fill="#71A64C"></path>
                <path d="M9.34482031,4.35310596 C9.42406454,3.81018533 9.71696728,3.34496896 10.1312441,3.02910622 C9.94767834,2.78388371 9.83834136,2.48921303 9.8212888,2.18546004 C9.68888071,2.08353628 9.5364108,2.00785032 9.36287596,1.98968569 C9.17529784,1.96849362 8.98571353,1.95840216 8.79813541,1.95840216 C8.63061912,1.95840216 8.46410592,1.96748448 8.29859581,1.98363082 C7.85723553,2.02601495 7.50515039,2.36105147 7.44195562,2.79599346 L7.3025259,3.75064571 C7.26440842,4.01302371 7.33562792,4.28145658 7.49812875,4.48934068 C7.6586234,4.69318821 7.88632518,4.81630403 8.13910426,4.8395144 C8.51526359,4.87180707 8.89543529,4.87079793 9.27159463,4.84859671 L9.34482031,4.35310596 Z" id="Fill-9" fill="#71A64C"></path>
                <path d="M9.8552936,9.67191161 L9.64464438,11.110954 C9.58746816,11.504521 9.69479895,11.9101977 9.94155948,12.2220239 C10.1823015,12.5288043 10.5253588,12.7165055 10.9075366,12.7487982 C11.5846234,12.8083378 12.2707381,12.8083378 12.9468218,12.7487982 C13.3289997,12.7165055 13.672057,12.5288043 13.913802,12.2220239 C14.1595595,11.9101977 14.2668903,11.504521 14.2097141,11.110954 L14.0000679,9.67594819 C13.9047742,9.02706722 13.3911913,8.52552159 12.7502158,8.45589051 C12.4663409,8.42460698 12.1814629,8.40946978 11.8985911,8.40946978 C11.645812,8.40946978 11.3950391,8.42258868 11.1462724,8.44680819 C10.4822258,8.51240269 9.95159039,9.01697576 9.8552936,9.67191161" id="Fill-11" fill="#71A64C"></path>
                <path d="M18.0427275,7.97261042 L17.8581587,6.71319604 C17.7749021,6.14403761 17.3235109,5.70404989 16.7617796,5.64249198 C16.5120098,5.61524503 16.26224,5.60212613 16.0134733,5.60212613 C15.7917901,5.60212613 15.572113,5.6122176 15.353439,5.63441881 C15.111694,5.65863832 14.8920169,5.75047062 14.7104574,5.88872364 C14.6883893,6.31054673 14.5389287,6.72126921 14.2751156,7.05630572 C14.2380012,7.10373559 14.191859,7.14208315 14.1507323,7.18547643 L14.0363798,7.97261042 C14.0303613,8.00893968 14.0333706,8.04526894 14.0313644,8.0815982 C14.4155484,8.39443351 14.695411,8.8273572 14.8187912,9.32991198 C14.9221097,9.36926868 15.0304436,9.40055221 15.144796,9.41064367 C15.7386262,9.46211012 16.3414842,9.46211012 16.9353144,9.41064367 C17.270347,9.38137843 17.5722776,9.21688761 17.7839299,8.94845474 C17.9985915,8.67497613 18.0938852,8.31874755 18.0427275,7.97261042" id="Fill-13" fill="#71A64C"></path>
                <path d="M9.8223922,8.0836165 C9.82038602,8.04627809 9.82339529,8.00994883 9.81737674,7.97261042 L9.70202121,7.18547643 C9.66089446,7.14208315 9.61575534,7.10373559 9.57864095,7.05630572 C9.31382478,6.72026006 9.16436414,6.30953758 9.14329922,5.88670535 C8.96976438,5.75551635 8.76312751,5.66772063 8.53642882,5.64249198 C8.28766212,5.61524503 8.03789232,5.60212613 7.78912561,5.60212613 C7.56744238,5.60212613 7.34776533,5.6122176 7.12909137,5.63441881 C6.54629517,5.69194014 6.0798576,6.13394615 5.996601,6.70915945 L5.81102906,7.97261042 C5.76087448,8.31874755 5.85516509,8.67497613 6.07082977,8.94845474 C6.28248209,9.21789676 6.58441265,9.38238758 6.91944523,9.41165282 C7.51327543,9.46311927 8.11513037,9.46311927 8.70996366,9.41165282 C8.82331301,9.40156136 8.9316469,9.37027783 9.03596842,9.33092113 C9.1573425,8.82836635 9.43720504,8.39746095 9.8223922,8.0836165" id="Fill-15" fill="#71A64C"></path>
                <path d="M9.25183372,12.7716049 C8.85661565,12.2690501 8.68207772,11.6161326 8.77536523,10.9823888 L8.82953218,10.6120322 C8.61787986,10.4283676 8.35607296,10.3052517 8.06517641,10.272959 C7.78029841,10.2416755 7.4954204,10.2265383 7.21254859,10.2265383 C6.9607726,10.2265383 6.70999971,10.2396572 6.46123301,10.2628676 C5.7971864,10.3284621 5.26655096,10.8330352 5.17025417,11.487971 L4.96060804,12.9270134 C4.90242873,13.3205804 5.01076262,13.7262571 5.25652005,14.0390924 C5.49826511,14.3448637 5.84031933,14.5325649 6.22249722,14.5658667 C6.89958402,14.6243972 7.58569864,14.6243972 8.26278545,14.5658667 C8.64396024,14.5325649 8.98701755,14.3448637 9.22876262,14.0390924 C9.44643348,13.7615773 9.54874882,13.4103944 9.53069317,13.0602207 C9.43138711,12.9714158 9.33609341,12.8785744 9.25183372,12.7716049" id="Fill-17" fill="#71A64C"></path>
                <path d="M18.8942519,12.9269125 L18.6846058,11.4929158 C18.5893121,10.8440349 18.0757292,10.3424892 17.4347537,10.2728581 C17.1508788,10.2415746 16.8660008,10.2264374 16.583129,10.2264374 C16.3303499,10.2264374 16.079577,10.2395563 15.8308103,10.2637758 C15.5228612,10.2940502 15.2450049,10.4222118 15.0243247,10.6129404 L15.0784917,10.9812787 C15.1717792,11.6160316 14.9982443,12.2679401 14.6020232,12.771504 C14.5177635,12.8784735 14.4224698,12.9713149 14.3241668,13.0601198 C14.3061112,13.4102935 14.4074234,13.7614763 14.6260974,14.0389915 C14.8678424,14.345772 15.2098966,14.532464 15.5920745,14.5657658 C16.2691613,14.6242963 16.955276,14.6242963 17.6323628,14.5657658 C18.0135376,14.532464 18.3565949,14.345772 18.5983399,14.0389915 C18.8430943,13.7261562 18.9514282,13.3214886 18.8942519,12.9269125" id="Fill-19" fill="#71A64C"></path>
                <path d="M9.72990716,15.2266556 L9.50722083,16.7524846 C9.44603225,17.1702711 9.56038468,17.6001674 9.82118849,17.9321764 C10.0769768,18.2571215 10.440096,18.4549141 10.845345,18.4902342 C11.5625554,18.5528013 12.2897968,18.5528013 13.0080104,18.4902342 C13.4132594,18.4549141 13.7773816,18.2571215 14.0331699,17.9321764 C14.2929707,17.6001674 14.4073231,17.1712802 14.3461345,16.7534937 L14.1244513,15.2327105 C14.023139,14.5444728 13.4784603,14.0126528 12.7993673,13.937976 C12.4984399,13.9056833 12.1965093,13.889537 11.8965849,13.889537 C11.6287595,13.889537 11.3619371,13.9026559 11.098124,13.9288937 C10.3949569,13.9975156 9.8322225,14.5323631 9.72990716,15.2266556" id="Fill-21" fill="#71A64C"></path>
                <path d="M19.3150488,18.3174684 L19.0923625,16.7966852 C18.9920534,16.1084475 18.4473746,15.5766275 17.7682817,15.5029598 C17.4673542,15.469658 17.1654236,15.4535117 16.8654993,15.4535117 C16.5976738,15.4535117 16.3308515,15.4666306 16.0670384,15.4928684 C15.7189656,15.5271793 15.404998,15.676533 15.1652591,15.9015726 L15.2695806,16.616048 C15.3678836,17.2891485 15.1843178,17.9804136 14.7650255,18.5132428 C14.6817689,18.6192031 14.5864752,18.7110354 14.4891754,18.7998403 C14.5323083,19.0521268 14.6296082,19.2933127 14.7901028,19.4961511 C15.0458912,19.8221053 15.4100134,20.019898 15.8142593,20.0552181 C16.5324729,20.1177851 17.2597142,20.1177851 17.9779278,20.0552181 C18.3821737,20.0209071 18.7462959,19.8221053 19.0020843,19.4961511 C19.261885,19.164142 19.3762374,18.7352549 19.3150488,18.3174684" id="Fill-23" fill="#71A64C"></path>
                <path d="M9.08963382,18.5136464 C8.67034155,17.9808173 8.4857727,17.288543 8.58507876,16.6164517 L8.68940029,15.9009671 C8.45868923,15.6840007 8.16177413,15.5386836 7.831757,15.5023544 C7.53082954,15.4700617 7.22990207,15.4539153 6.92997769,15.4539153 C6.66114916,15.4539153 6.39532989,15.4670342 6.13151681,15.493272 C5.42734654,15.5629031 4.86461218,16.0967414 4.76329993,16.7920431 L4.53961051,18.3178721 C4.47842193,18.7356586 4.59277436,19.1655548 4.85357817,19.4965548 C5.10936652,19.822509 5.47248566,20.0203016 5.87773465,20.0556217 C6.59494511,20.1181888 7.32318958,20.1181888 8.04040005,20.0556217 C8.44564904,20.0213108 8.80876818,19.822509 9.06555962,19.4975639 C9.22505118,19.2947256 9.32235106,19.0525305 9.365484,18.8002439 C9.26818411,18.7104299 9.17289042,18.6196068 9.08963382,18.5136464" id="Fill-25" fill="#71A64C"></path>
                <path d="M9.54102502,21.3527782 L9.29827686,23.0097962 C9.23207282,23.4639119 9.35645617,23.9301374 9.63932799,24.2904026 C9.91818744,24.6436038 10.3124024,24.8585519 10.7527596,24.8968994 C11.5321618,24.9645122 12.3225979,24.9645122 13.102,24.8968994 C13.5413541,24.8585519 13.9365722,24.6436038 14.2144286,24.2904026 C14.4983035,23.9301374 14.6226868,23.4639119 14.5554797,23.0097962 L14.3137346,21.3578239 C14.2043977,20.6110558 13.6125737,20.032815 12.8753014,19.9530925 C12.5482935,19.9177724 12.2212857,19.8996077 11.8952809,19.8996077 C11.6043844,19.8996077 11.3144909,19.9137358 11.0276067,19.9419919 C10.2622478,20.0176778 9.65136509,20.5979369 9.54102502,21.3527782" id="Fill-27" fill="#71A64C"></path>
                <path d="M19.9514101,24.0948301 L19.7096651,22.4428579 C19.6003281,21.6950806 19.0095072,21.1168398 18.2712318,21.0381264 C17.9442239,21.0017972 17.616213,20.9846417 17.2902082,20.9846417 C16.9993117,20.9846417 16.7104213,20.9987697 16.4245402,21.0270258 C16.0052479,21.0684008 15.6361102,21.2651843 15.3662786,21.5548092 L15.556866,22.8616535 C15.6641968,23.5922753 15.4645816,24.3440892 15.0081749,24.9233391 C14.9610296,24.9828787 14.9038534,25.0303086 14.8526957,25.0848025 C14.9028503,25.1877354 14.9640389,25.2846134 15.0352584,25.3754365 C15.3131148,25.7286377 15.7083328,25.944595 16.1476869,25.9819334 C16.9280922,26.0505553 17.7185283,26.0495462 18.4979305,25.9819334 C18.9372846,25.944595 19.3325026,25.7286377 19.610359,25.3754365 C19.8932308,25.0151714 20.0176142,24.5489459 19.9514101,24.0948301" id="Fill-29" fill="#71A64C"></path>
                <path d="M3.67404281,39.0032488 C3.6750459,43.6019277 7.37745684,47.3176038 11.9274801,47.3176038 C12.5624371,47.3176038 13.1923786,47.2449453 13.8042644,47.1016466 C13.0910663,37.4935661 8.3203629,25.6027972 0.338763377,19.8890117 C2.24463734,23.5814774 3.34502878,27.1498182 3.6148604,30.5203663 C3.76733032,32.4185702 3.72118811,34.0321949 3.67705208,35.5913257 C3.64294697,36.7710175 3.61185113,37.8841057 3.67404281,39.0032488" id="Fill-31" fill="#71A64C"></path>
                <path d="M7.60224966,25.9869791 C7.63635477,25.9839517 7.67146297,25.9849608 7.70556809,25.9829425 C8.14592528,25.944595 8.54114335,25.7286377 8.81899971,25.3754365 C8.89021922,25.2846134 8.9514078,25.1877354 9.00156238,25.0848025 C8.95040471,25.0303086 8.89322849,24.9828787 8.8450801,24.9233391 C8.38967653,24.3440892 8.19006131,23.5922753 8.29638901,22.8616535 L8.4879795,21.552791 C8.22817879,21.2722483 7.87609365,21.0815197 7.47886939,21.0381264 C7.15186155,21.0028063 6.82385061,20.9846417 6.49784585,20.9846417 C6.2069493,20.9846417 5.91805893,20.9987697 5.63217784,21.028035 C5.0543971,21.0845471 4.56589151,21.428666 4.31210935,21.919111 C5.50277902,23.1532967 6.60116428,24.5206898 7.60224966,25.9869791" id="Fill-33" fill="#71A64C"></path>
                <path d="M9.54102502,27.7294717 L9.376518,28.856688 C9.81185974,29.636758 10.2231273,30.4349925 10.6103206,31.246346 C10.658469,31.2544192 10.7036081,31.2695564 10.7527596,31.273593 C11.5321618,31.3422149 12.3225979,31.3422149 13.1030031,31.273593 C13.5423572,31.2352454 13.9375753,31.0202973 14.2154317,30.6670962 C14.4983035,30.306831 14.6226868,29.8406055 14.5564828,29.3864897 L14.3147377,27.7345175 C14.2054008,26.9867402 13.6135767,26.4095086 12.8753014,26.3287769 C12.5482935,26.2934568 12.2192795,26.2752922 11.8922716,26.2752922 C11.6023782,26.2752922 11.3134878,26.2894202 11.0286098,26.3176763 C10.2622478,26.3943714 9.65136509,26.9746304 9.54102502,27.7294717" id="Fill-35" fill="#71A64C"></path>
                <path d="M20.1626612,39.0330186 C20.1626612,35.3476169 20.7885903,31.0769104 21.650246,28.4581762 C17.0841732,31.1132397 14.200285,33.2163002 12.5221128,35.9329216 C13.7880144,39.5819941 14.5804567,43.3158348 14.8613223,46.7761969 C18.013036,45.5652216 20.1626612,42.4721886 20.1626612,39.0330186" id="Fill-37" fill="#71A64C"></path>
                <path d="M15.0959454,31.5052929 C16.3638532,30.469909 17.8775183,29.4506714 19.6760615,28.3618027 C19.5135607,27.6887022 18.958851,27.1790834 18.2717333,27.1044066 C17.9447255,27.0690865 17.6177176,27.051931 17.2917129,27.051931 C17.0008163,27.051931 16.7119259,27.0660591 16.4240387,27.0943152 C15.6596829,27.1700011 15.0477971,27.7502602 14.937457,28.5051015 L14.6957119,30.1621194 C14.6285048,30.6162352 14.7528881,31.0824607 15.036763,31.4427259 C15.0538156,31.4659362 15.0768867,31.4830917 15.0959454,31.5052929" id="Fill-39" fill="#71A64C"></path>
                <path d="M13.4096482,33.0476719 C13.2451412,32.9659311 13.0645847,32.9124463 12.8750004,32.8912543 C12.5479926,32.8559341 12.2209847,32.8377695 11.8959831,32.8377695 C11.7104111,32.8377695 11.5278485,32.8539158 11.3442827,32.8650165 C11.5980649,33.4583944 11.8357976,34.0578272 12.0634994,34.6602874 C12.4617267,34.1012205 12.9091055,33.566373 13.4096482,33.0476719" id="Fill-41" fill="#71A64C"></path>
                <path d="M13.670452,6.70502195 C13.8861167,6.4305342 13.9804073,6.07531476 13.9302527,5.72917763 L13.746687,4.46976325 C13.6634304,3.90060483 13.2120392,3.45960796 12.6493048,3.39905919 C12.4005381,3.37181225 12.1517714,3.35869335 11.9030047,3.35869335 C11.6813215,3.35869335 11.4606413,3.36878481 11.2419674,3.39098602 C10.6591712,3.44850735 10.1927336,3.89051336 10.1084739,4.46673581 L9.92390507,5.72917763 C9.8727474,6.07531476 9.96804109,6.43154335 10.1837058,6.7060311 C10.3963612,6.97446397 10.6972887,7.13895479 11.0313181,7.16822003 C11.6261514,7.21968648 12.2290095,7.21968648 12.8228397,7.16822003 C13.1578722,7.13895479 13.4587997,6.97446397 13.670452,6.70502195" id="Fill-43" fill="#71A64C"></path>
            </g>
        </g>
    </g>
</svg>